<svg fill="none" xmlns="http://www.w3.org/2000/svg" viewBox="0 0 151 156"><g clip-path="url(#a)"><rect width="118.85" height="122.88" fill="#CAD7DF"/><path d="m113.43 113.78-2.24-2.58-10.64 10.64-.01-.01a3.081 3.081 0 0 1-4.33.03l-10.84-10.54-10.62 10.2a3.086 3.086 0 0 1-4.31.12l-11.27-10.41-10.23 10.53c-.06.07-.12.13-.18.2a3.084 3.084 0 0 1-4.37 0l-10.73-10.73-11.06 10.54a3.085 3.085 0 0 1-4.31-.06L7.77 111.08l-2.19 2.52c-.56.76-1.47 1.25-2.49 1.25-1.71 0-3.09-1.39-3.09-3.09V3.09C0 1.38 1.38 0 3.09 0h112.67c1.71 0 3.09 1.38 3.09 3.09v108.67h-.01c0 .86-.36 1.72-1.07 2.33a3.065 3.065 0 0 1-4.34-.31Zm-83.8-27.34v-4.91c-1.22-.15-2.33-.37-3.32-.64-1.01-.28-1.9-.62-2.68-1.02a9.3 9.3 0 0 1-2.18-1.58 12.41 12.41 0 0 1-1.85-2.31c-.57-.9-1.01-1.89-1.34-2.98-.33-1.09-.54-2.28-.63-3.57v-.05l.05-.01 4.96-.96.05-.01.01.05c.19 1.34.46 2.49.79 3.47.34.98.75 1.77 1.23 2.39.69.88 1.45 1.56 2.28 2.05.81.48 1.69.77 2.63.88V61.8c-1.01-.26-2.03-.61-3.05-1.03a30.38 30.38 0 0 1-3.15-1.54c-.79-.44-1.49-.96-2.1-1.57a9.105 9.105 0 0 1-1.56-2.1c-.43-.79-.75-1.63-.96-2.52-.21-.89-.32-1.83-.32-2.82 0-1.77.31-3.37.94-4.8.63-1.43 1.57-2.7 2.82-3.8.84-.74 1.88-1.33 3.12-1.78 1.23-.45 2.66-.75 4.28-.92V36.55h3.03V38.92c1.41.14 2.69.42 3.81.84 1.14.43 2.14 1 2.99 1.71 1.08.91 1.95 1.98 2.6 3.22.65 1.24 1.09 2.66 1.31 4.24l.01.05-.05.01-5.07.79-.05.01-.01-.05c-.14-.98-.37-1.84-.67-2.59-.3-.75-.68-1.38-1.14-1.89-.46-.52-1-.95-1.63-1.29-.61-.33-1.31-.58-2.08-.75v14.17c1.22.31 2.23.59 3.04.83.84.25 1.46.47 1.87.64.77.34 1.47.72 2.1 1.13.63.41 1.19.87 1.67 1.36.49.49.92 1.02 1.3 1.6.38.58.69 1.21.96 1.88.26.67.46 1.37.59 2.1.13.73.2 1.48.2 2.26 0 3.44-1.09 6.31-3.28 8.62a11.537 11.537 0 0 1-3.76 2.65c-1.4.61-2.96.96-4.67 1.05v5.01h-3.03v-.08h-.06Zm58.6-4.43a2.279 2.279 0 1 1 0 4.56H56.18a2.279 2.279 0 1 1 0-4.56h32.05Zm13.04-45.55a2.279 2.279 0 1 1 0 4.56H56.18a2.279 2.279 0 1 1 0-4.56h45.09Zm-.12 30.37a2.279 2.279 0 1 1 0 4.56H56.18a2.279 2.279 0 1 1 0-4.56h44.97Zm.12-15.19a2.279 2.279 0 1 1 0 4.56H56.18a2.279 2.279 0 1 1 0-4.56h45.09Zm-71.64-8.52c-.93.15-1.77.41-2.5.79-.75.38-1.4.88-1.94 1.51-.55.62-.96 1.3-1.24 2.03a6.78 6.78 0 0 0-.41 2.37c0 .84.12 1.61.35 2.31.23.7.58 1.33 1.05 1.9.47.56 1.1 1.06 1.89 1.49.78.42 1.71.77 2.81 1.06V43.12h-.01Zm3.03 34.14c.93-.12 1.79-.38 2.56-.79.79-.41 1.5-.98 2.12-1.69.62-.71 1.09-1.5 1.4-2.38.31-.88.47-1.84.47-2.89 0-.9-.11-1.7-.33-2.42-.22-.72-.55-1.34-.99-1.89-.44-.54-1.1-1.03-1.98-1.47-.87-.43-1.95-.82-3.24-1.16v14.69h-.01Zm68.11-61.61c1.76 0 3.19 1.43 3.19 3.2 0 1.76-1.43 3.19-3.19 3.19s-3.19-1.43-3.19-3.19c0-1.77 1.43-3.2 3.19-3.2Zm-20.67 0c1.76 0 3.19 1.43 3.19 3.2 0 1.76-1.43 3.19-3.19 3.19s-3.19-1.43-3.19-3.19a3.182 3.182 0 0 1 3.19-3.2Zm-20.67 0c1.76 0 3.19 1.43 3.19 3.2 0 1.76-1.43 3.19-3.19 3.19s-3.19-1.43-3.19-3.19a3.182 3.182 0 0 1 3.19-3.2Zm-20.68 0c1.76 0 3.19 1.43 3.19 3.2 0 1.76-1.43 3.19-3.19 3.19s-3.19-1.43-3.19-3.19c0-1.77 1.43-3.2 3.19-3.2Zm-20.67 0c1.76 0 3.19 1.43 3.19 3.2 0 1.76-1.43 3.19-3.19 3.19s-3.19-1.43-3.19-3.19a3.182 3.182 0 0 1 3.19-3.2Zm94.59 88.23V6.19H6.19v97.64c1.09-.57 2.46-.45 3.45.4.06.05.12.1.17.16l10.73 10.84 11.05-10.52a3.085 3.085 0 0 1 4.31.05l.01-.01 10.64 10.64 10.3-10.61a3.084 3.084 0 0 1 4.3-.12l11.35 10.48 10.76-10.32a3.094 3.094 0 0 1 4.31.03l10.77 10.47 10.83-10.83c.93-.95 2.35-1.15 3.5-.61Z" fill="#000"/></g><circle cx="74" cy="95" r="31" fill="#00538A" stroke="#000" stroke-width="6"/><path d="M82.617 97.666v3.656h-18.44l-.193-2.812L74.83 81.406h3.71L74.53 88.21l-5.818 9.457h13.904Zm-3.04-16.26V107h-4.659V81.406h4.658Z" fill="#fff"/><circle cx="117" cy="116" r="31" fill="#00538A" stroke="#000" stroke-width="6"/><path d="M111.344 124.396h.334c1.511 0 2.789-.193 3.832-.58 1.054-.386 1.904-.931 2.549-1.634a6.423 6.423 0 0 0 1.423-2.549c.305-.996.457-2.098.457-3.305v-4.64c0-.985-.099-1.846-.298-2.584-.2-.75-.481-1.377-.844-1.881-.352-.504-.768-.879-1.248-1.125a3.222 3.222 0 0 0-1.547-.387c-.609 0-1.148.141-1.617.422a3.762 3.762 0 0 0-1.196 1.16 5.88 5.88 0 0 0-.738 1.67 7.962 7.962 0 0 0-.246 2.004c0 .679.076 1.33.229 1.951.164.621.404 1.172.72 1.652.328.481.739.862 1.231 1.143.492.269 1.066.404 1.722.404.622 0 1.184-.117 1.688-.351a4.443 4.443 0 0 0 1.336-.967c.375-.41.662-.861.861-1.354a4.471 4.471 0 0 0 .352-1.529l1.635.703c0 .856-.182 1.699-.545 2.531a7.553 7.553 0 0 1-1.495 2.268 7.59 7.59 0 0 1-2.214 1.617 6.294 6.294 0 0 1-2.725.598c-1.207 0-2.273-.223-3.199-.668a6.68 6.68 0 0 1-2.338-1.846 8.438 8.438 0 0 1-1.406-2.742 11.426 11.426 0 0 1-.475-3.34c0-1.23.193-2.385.58-3.463a8.61 8.61 0 0 1 1.67-2.865 7.802 7.802 0 0 1 2.672-1.951c1.043-.481 2.215-.721 3.516-.721 1.347 0 2.548.264 3.603.791a7.855 7.855 0 0 1 2.689 2.197c.739.926 1.301 2.022 1.688 3.287.398 1.266.598 2.649.598 4.149v1.635c0 1.582-.159 3.082-.475 4.5a14.233 14.233 0 0 1-1.459 3.884 10.845 10.845 0 0 1-2.514 3.041c-1.007.856-2.214 1.518-3.621 1.987-1.394.457-2.988.685-4.781.685h-.404v-3.797Z" fill="#fff"/><circle cx="34" cy="122" r="31" fill="#E31519" stroke="#000" stroke-width="6"/><path d="M37.766 108.195h.632v3.744H38.1c-1.418 0-2.666.217-3.745.651-1.066.433-1.957 1.043-2.671 1.828-.704.773-1.237 1.693-1.6 2.76-.363 1.054-.545 2.209-.545 3.463v4.148c0 .973.1 1.828.299 2.566.21.727.498 1.342.861 1.846.375.492.809.861 1.301 1.108a3.715 3.715 0 0 0 1.652.369c.598 0 1.137-.123 1.617-.369.481-.247.891-.592 1.231-1.038.352-.457.615-.99.791-1.599a6.79 6.79 0 0 0 .281-2.004c0-.715-.088-1.377-.263-1.986a4.95 4.95 0 0 0-.774-1.6 3.372 3.372 0 0 0-1.265-1.072c-.493-.258-1.055-.387-1.688-.387-.82 0-1.553.193-2.197.58a4.295 4.295 0 0 0-1.53 1.477 4.04 4.04 0 0 0-.615 1.933l-1.564-.773c.058-.996.27-1.91.633-2.742a7.284 7.284 0 0 1 1.494-2.18 6.646 6.646 0 0 1 2.232-1.441c.867-.34 1.828-.51 2.883-.51 1.219 0 2.285.234 3.2.703a6.327 6.327 0 0 1 2.267 1.881 8.35 8.35 0 0 1 1.37 2.76c.305 1.031.458 2.121.458 3.269 0 1.231-.2 2.379-.598 3.445a8.147 8.147 0 0 1-1.687 2.795 7.74 7.74 0 0 1-2.672 1.864c-1.043.445-2.215.668-3.516.668-1.37 0-2.601-.258-3.691-.774a8.28 8.28 0 0 1-2.777-2.144c-.774-.914-1.366-1.981-1.776-3.2-.41-1.218-.615-2.537-.615-3.955v-1.863c0-2.004.275-3.867.826-5.59.55-1.722 1.365-3.228 2.443-4.517 1.09-1.301 2.438-2.309 4.043-3.024 1.606-.726 3.463-1.09 5.573-1.09Z" fill="#fff"/><defs><clipPath id="a"><rect width="118.85" height="122.88" fill="#fff"/></clipPath></defs></svg>